
<svg width="120" height="40" viewBox="0 0 120 40" fill="none" xmlns="http://www.w3.org/2000/svg">
  <path d="M15.6 29H12.24V13.4H15.6V15.28C16.56 13.92 18 13.08 19.92 13.08C23.28 13.08 25.44 15.56 25.44 19.32V29H22.08V19.92C22.08 17.52 20.88 16.2 18.84 16.2C16.8 16.2 15.6 17.52 15.6 19.92V29ZM35.6088 29.32C31.8088 29.32 29.0088 26.52 29.0088 21.2C29.0088 15.88 31.8088 13.08 35.6088 13.08C39.4088 13.08 42.2088 15.88 42.2088 21.2C42.2088 26.52 39.4088 29.32 35.6088 29.32ZM35.6088 26.2C37.4488 26.2 38.6888 24.56 38.6888 21.2C38.6888 17.84 37.4488 16.2 35.6088 16.2C33.7688 16.2 32.5288 17.84 32.5288 21.2C32.5288 24.56 33.7688 26.2 35.6088 26.2ZM52.2975 29.32C47.2975 29.32 43.8975 26.36 43.8975 21.2C43.8975 16.04 47.2975 13.08 52.2975 13.08C55.6175 13.08 58.4975 14.8 59.2975 17.92L55.9775 18.76C55.5775 17 54.1775 16.04 52.2975 16.04C49.7375 16.04 47.7375 18 47.7375 21.2C47.7375 24.4 49.7375 26.36 52.2975 26.36C54.1775 26.36 55.5775 25.4 55.9775 23.6L59.2975 24.44C58.4975 27.56 55.6175 29.32 52.2975 29.32ZM68.5862 29.32C64.7063 29.32 61.8262 26.64 61.8262 21.2C61.8262 15.76 64.7063 13.08 68.5862 13.08C70.4663 13.08 71.9463 13.8 72.9063 15.12V7.8H76.2663V29H72.9063V27.36C71.9463 28.64 70.4663 29.32 68.5862 29.32ZM69.4663 26.2C71.2663 26.2 72.9063 24.76 72.9063 21.2C72.9063 17.64 71.2663 16.2 69.4663 16.2C67.6663 16.2 65.6262 17.64 65.6262 21.2C65.6262 24.76 67.6663 26.2 69.4663 26.2ZM87.095 29.32C82.895 29.32 79.735 26.28 79.735 21.2C79.735 16.08 82.895 13.08 87.095 13.08C91.295 13.08 94.455 16.08 94.455 21.2C94.455 26.28 91.295 29.32 87.095 29.32ZM87.095 26.2C89.055 26.2 90.655 24.44 90.655 21.2C90.655 17.92 89.055 16.2 87.095 16.2C85.135 16.2 83.535 17.92 83.535 21.2C83.535 24.44 85.135 26.2 87.095 26.2ZM103.304 29V16.4H100.464V13.4H103.304V8.44H106.664V13.4H110.464V16.4H106.664V29H103.304Z" fill="#075985"/>
</svg>
